<svg width="230" height="222" viewBox="0 0 230 222" fill="none" xmlns="http://www.w3.org/2000/svg">
<path d="M144.716 46.168C140.361 46.1539 136.433 49.2258 135.61 53.2925C135.551 53.5852 135.507 53.8843 135.502 54.1809C135.487 55.1115 135.824 55.652 136.559 55.9293C137.393 56.2438 138.302 56.0717 138.865 55.3798C139.329 54.8112 139.66 54.1475 140.083 53.5467C141.298 51.8253 142.958 50.9203 145.184 51.0204C146.617 51.0846 147.795 51.6225 148.663 52.6892C149.207 53.3593 149.597 54.1449 150.145 54.8112C150.513 55.2592 150.974 55.7406 151.504 55.9459C152.639 56.3837 153.805 55.6135 153.913 54.4517C153.948 54.0743 153.936 53.6725 153.837 53.3092C152.659 48.9511 149.187 46.2309 144.715 46.168H144.716Z" fill="#D9D9D9"/>
<path d="M84.7164 46.1641C80.2536 46.1602 76.1547 49.58 75.6061 53.7636C75.4565 54.9009 75.8393 55.6198 76.768 55.9484C77.7748 56.3053 78.6294 55.9908 79.2669 55.0036C79.5945 54.4953 79.8735 53.9574 80.1997 53.4478C82.0988 50.467 86.931 49.9908 89.151 53.1307C89.4758 53.5903 89.7548 54.0781 90.0783 54.5389C90.3506 54.9253 90.6067 55.3425 90.9585 55.6532C91.4895 56.123 92.1486 56.1885 92.8415 55.9587C93.5599 55.7199 93.9157 55.209 94.0141 54.5299C94.0559 54.2411 94.0155 53.933 93.9629 53.6429C93.3644 50.3618 90.3061 46.1743 84.7178 46.1641H84.7164Z" fill="#D9D9D9"/>
<path d="M13.1102 57.8626C14.6387 60.9987 16.2521 64.9807 16.5689 66.9884C17.6526 73.8434 9.53157 84.2015 3.22348 88.6508C1.36205 84.2375 0.220396 79.6675 0.0222569 74.8601C-0.113878 71.5738 0.364626 68.3825 1.76508 65.3491C3.74242 61.0693 7.26174 58.7188 12.0279 57.9923C12.3864 57.9371 12.7463 57.896 13.1088 57.8613L13.1102 57.8626Z" fill="#D9D9D9"/>
<path d="M225.302 90.983C219.132 86.2603 211.724 76.4785 212.761 69.9124C213.186 67.2294 215.92 61.0279 217.679 58.0215C222.406 58.7956 225.855 61.223 227.828 65.4669C229.489 69.0382 229.863 72.7904 229.481 76.6351C228.976 81.6903 227.499 86.4515 225.301 90.983H225.302Z" fill="#D9D9D9"/>
<path d="M20.6987 67.5124C20.3698 63.212 18.5919 58.8705 16.647 55.8358C17.4301 52.8423 18.658 50.0425 20.5801 47.5252C22.0048 45.6574 23.8137 44.2839 26.1886 43.7935C29.5327 43.1028 31.6947 44.0014 33.3567 46.3249C33.8015 46.9475 34.0926 47.6946 34.3312 48.4199C35.051 50.6048 35.1979 52.8666 35.1628 55.1375C35.0941 59.5521 35.489 63.927 36.2506 68.28C36.9043 72.013 38.3142 75.4276 40.7336 78.452C42.5924 80.7755 44.687 82.8757 47.1051 84.6767C47.8666 85.2441 48.6268 85.8128 49.3884 86.3801C49.4612 85.8936 49.3533 85.5342 49.2442 85.176C47.8976 80.7704 47.0808 76.271 46.7479 71.7011C46.1818 63.9373 46.8004 56.2582 48.5931 48.6523C50.3898 41.0245 53.3956 33.8833 57.9636 27.3917C64.9982 17.3968 74.4132 10.0887 86.0414 5.40322C97.0751 0.956489 108.598 -0.61219 120.524 0.209376C128.971 0.792175 137.083 2.62144 144.806 5.93467C153.399 9.62145 160.845 14.8166 167.006 21.6163C172.617 27.8102 176.653 34.8602 179.256 42.6548C181.277 48.71 182.45 54.9103 182.854 61.2531C183.364 69.2505 182.755 77.1311 180.381 84.85C180.246 85.2877 180.156 85.737 179.986 86.4174C183.205 84.1131 186.034 81.7999 188.373 78.9475C190.564 76.2736 192.198 73.3596 192.893 70.0335C193.375 67.7332 193.788 65.4084 194.009 63.0746C194.255 60.4828 194.255 57.8705 194.342 55.2659C194.421 52.9565 194.558 50.6587 195.165 48.4058C195.828 45.9437 198.338 43.2903 202.039 43.5778C204.766 43.7896 206.867 45.0412 208.541 47.0194C210.96 49.8782 212.319 53.1978 213.133 56.7473C213.207 57.072 213.31 57.3904 213.388 57.6728C213.4 57.6728 213.412 57.6741 213.424 57.6754C211.207 60.6959 209.001 65.5919 208.63 70.4341C207.801 81.2595 216.126 92.135 222.529 95.9989C218.395 102.674 213.043 108.405 206.99 113.577C202.001 117.84 196.641 121.629 190.888 124.912C190.624 125.062 190.377 125.24 190.056 125.448C190.192 125.99 190.289 126.405 190.4 126.815C192.325 133.992 193.513 141.28 194.12 148.665C194.226 149.96 193.803 150.874 192.903 151.742C187.819 156.651 182.407 161.198 176.455 165.131C167.214 171.239 157.206 175.849 146.429 178.948C136.664 181.756 126.685 183.245 116.491 183.415C109.067 183.538 101.71 182.907 94.4104 181.597C82.7633 179.507 71.7848 175.678 61.4681 170.14C54.5252 166.414 48.0971 161.995 42.2513 156.826C40.4438 155.226 38.6983 153.564 36.8895 151.964C35.7599 150.966 35.1817 149.833 35.427 148.325C35.6117 147.188 35.6292 146.027 35.7532 144.88C36.4298 138.624 37.6187 132.456 39.2577 126.365C39.3426 126.048 39.3736 125.719 39.4316 125.387C39.0932 125.188 38.8291 125.03 38.5635 124.876C31.874 120.99 25.6697 116.503 20.0261 111.32C14.3286 106.086 9.37379 100.342 5.68599 93.6857C12.1868 90.4995 21.5775 78.9771 20.7001 67.5098L20.6987 67.5124ZM117.405 56.9591C115.596 56.3018 113.84 56.3416 112.043 56.9809C110.336 57.5881 108.838 58.5059 107.508 59.6638C105.865 61.0939 103.998 62.1555 101.957 62.9745C101.434 63.185 100.946 63.4751 100.442 63.7293C100.445 63.85 100.446 63.9719 100.449 64.0926C102.196 64.7242 103.928 65.3981 105.693 65.9783C107.931 66.7139 110.197 67.3712 112.446 68.0721C113.938 68.5368 115.428 68.5727 116.932 68.1247C120.988 66.918 125.038 65.6972 128.939 64.0733C129.012 64.0425 129.064 63.9668 129.245 63.8076C128.841 63.5932 128.49 63.366 128.107 63.2133C125.648 62.2351 123.411 60.9373 121.43 59.2222C120.263 58.2133 118.892 57.4982 117.405 56.9578V56.9591ZM101.871 68.547C102.043 68.8628 102.088 69.0284 102.197 69.1324C104.891 71.7113 107.682 74.1786 111.146 75.8217C113.455 76.918 115.796 76.9617 118.132 75.9065C121.673 74.3057 124.505 71.8217 127.234 69.2145C127.354 69.1003 127.427 68.9411 127.714 68.5226C126.875 68.8153 126.327 69.031 125.763 69.2004C122.697 70.1247 119.628 71.0451 116.556 71.954C115.044 72.402 113.534 72.2466 112.065 71.7896C108.919 70.8102 105.789 69.7884 102.651 68.7858C102.455 68.7229 102.256 68.6651 101.871 68.547ZM52.7527 159.557C59.2037 164.168 66.1264 167.987 73.5384 171.022C79.3613 173.406 85.3459 175.311 91.5165 176.656C99.1077 178.311 106.812 179.107 116.974 179.125C125.302 179.072 135.773 177.606 146.001 174.569C155.747 171.674 164.82 167.473 173.241 161.987C174.462 161.191 175.605 160.288 176.831 159.5C177.513 159.061 177.704 158.524 177.7 157.774C177.673 153.536 177.269 149.329 176.616 145.139C175.185 135.93 172.156 127.209 167.741 118.923C163.779 111.488 158.812 104.709 152.886 98.5714C152.278 97.9424 151.647 97.3339 151.048 96.6985C150.079 95.6703 150.09 94.6446 151.092 93.6318C151.459 93.2595 151.883 92.936 152.276 92.5868C160.031 85.7255 165.176 77.4469 167.231 67.5072C168.187 62.891 168.126 58.2453 167.51 53.5971C166.916 49.1067 165.603 44.8217 163.349 40.823C161.784 38.0464 159.75 35.6138 157.218 33.5804C153.666 30.728 149.529 29.2556 144.914 28.9899C142.396 28.8448 139.887 28.9424 137.439 29.6009C132.332 30.9745 128.761 34.0374 126.482 38.5727C124.153 43.2043 123.267 48.1272 122.866 53.1953C122.735 54.8423 123.065 56.0117 124.511 57.0027C125.753 57.8538 126.956 58.7113 128.37 59.3018C129.597 59.8153 130.831 60.357 131.95 61.0515C134.283 62.5008 134.859 64.5085 133.725 66.9463C133.402 67.6433 132.989 68.3237 132.503 68.927C129.524 72.6305 125.91 75.6754 121.759 78.1388C116.859 81.0451 111.998 80.8602 107.226 77.8628C103.418 75.47 100.03 72.624 97.2059 69.194C96.3109 68.108 95.5749 66.9437 95.3889 65.5342C95.1557 63.7755 95.703 62.3082 97.2598 61.2877C98.0685 60.7575 98.9204 60.253 99.8221 59.891C102.207 58.9321 104.346 57.6561 106.191 55.9154C106.551 55.5753 106.712 55.262 106.7 54.814C106.551 48.9912 105.675 43.2993 102.835 38.0631C99.7628 32.4007 94.7756 29.4071 88.0942 28.9809C84.3659 28.7434 80.7509 29.1773 77.3071 30.6202C72.4709 32.6458 68.9866 36.0682 66.4472 40.3865C63.5479 45.3172 62.1582 50.6625 61.766 56.289C61.4452 60.8872 61.6609 65.4341 62.8564 69.9039C64.5062 76.0721 67.4446 81.651 71.5395 86.678C73.4697 89.0477 75.5858 91.2531 78.0066 93.1812C78.1091 93.2633 78.2048 93.3545 78.3005 93.4456C79.5661 94.6587 79.5648 95.6279 78.3625 96.8859C76.5522 98.7807 74.6895 100.638 72.9898 102.621C63.4994 113.697 56.9716 126.172 53.8243 140.173C52.5263 145.946 51.8698 151.81 51.8334 157.728C51.828 158.533 52.0626 159.061 52.754 159.555L52.7527 159.557Z" fill="#D9D9D9"/>
<ellipse cx="115.618" cy="213.5" rx="93" ry="8.5" fill="#D9D9D9" fill-opacity="0.27"/>
</svg>
